<svg id="visual" viewBox="0 0 960 100" width="960" height="100" xmlns="http://www.w3.org/2000/svg" xmlns:xlink="http://www.w3.org/1999/xlink" version="1.1"><path d="M0 21L51 24L101 23L152 25L202 18L253 17L303 14L354 18L404 21L455 23L505 14L556 17L606 16L657 19L707 23L758 16L808 15L859 23L909 18L960 17L960 0L909 0L859 0L808 0L758 0L707 0L657 0L606 0L556 0L505 0L455 0L404 0L354 0L303 0L253 0L202 0L152 0L101 0L51 0L0 0Z" fill="#002233"></path><path d="M0 38L51 34L101 40L152 38L202 32L253 29L303 27L354 33L404 31L455 36L505 31L556 32L606 34L657 36L707 34L758 31L808 24L859 36L909 35L960 33L960 15L909 16L859 21L808 13L758 14L707 21L657 17L606 14L556 15L505 12L455 21L404 19L354 16L303 12L253 15L202 16L152 23L101 21L51 22L0 19Z" fill="#003e65"></path><path d="M0 57L51 59L101 67L152 59L202 61L253 59L303 58L354 62L404 60L455 57L505 69L556 66L606 55L657 67L707 68L758 59L808 54L859 61L909 61L960 59L960 31L909 33L859 34L808 22L758 29L707 32L657 34L606 32L556 30L505 29L455 34L404 29L354 31L303 25L253 27L202 30L152 36L101 38L51 32L0 36Z" fill="#1d5a9a"></path><path d="M0 87L51 93L101 89L152 91L202 89L253 87L303 92L354 92L404 90L455 92L505 89L556 93L606 89L657 87L707 88L758 88L808 86L859 86L909 90L960 87L960 57L909 59L859 59L808 52L758 57L707 66L657 65L606 53L556 64L505 67L455 55L404 58L354 60L303 56L253 57L202 59L152 57L101 65L51 57L0 55Z" fill="#5773cf"></path><path d="M0 101L51 101L101 101L152 101L202 101L253 101L303 101L354 101L404 101L455 101L505 101L556 101L606 101L657 101L707 101L758 101L808 101L859 101L909 101L960 101L960 85L909 88L859 84L808 84L758 86L707 86L657 85L606 87L556 91L505 87L455 90L404 88L354 90L303 90L253 85L202 87L152 89L101 87L51 91L0 85Z" fill="#9c88ff"></path></svg>