<svg id="visual" viewBox="0 0 960 200" width="960" height="200" xmlns="http://www.w3.org/2000/svg" xmlns:xlink="http://www.w3.org/1999/xlink" version="1.1"><rect x="0" y="0" width="960" height="200" fill="#171a1c"></rect><path d="M0 102L12.3 94.5C24.7 87 49.3 72 74 67.2C98.7 62.3 123.3 67.7 148 76.5C172.7 85.3 197.3 97.7 221.8 106.5C246.3 115.3 270.7 120.7 295.2 125.2C319.7 129.7 344.3 133.3 369 125.8C393.7 118.3 418.3 99.7 443 92.3C467.7 85 492.3 89 517 93.7C541.7 98.3 566.3 103.7 591 100C615.7 96.3 640.3 83.7 664.8 88.2C689.3 92.7 713.7 114.3 738.2 112.3C762.7 110.3 787.3 84.7 812 70.3C836.7 56 861.3 53 886 64.3C910.7 75.7 935.3 101.3 947.7 114.2L960 127L960 201L947.7 201C935.3 201 910.7 201 886 201C861.3 201 836.7 201 812 201C787.3 201 762.7 201 738.2 201C713.7 201 689.3 201 664.8 201C640.3 201 615.7 201 591 201C566.3 201 541.7 201 517 201C492.3 201 467.7 201 443 201C418.3 201 393.7 201 369 201C344.3 201 319.7 201 295.2 201C270.7 201 246.3 201 221.8 201C197.3 201 172.7 201 148 201C123.3 201 98.7 201 74 201C49.3 201 24.7 201 12.3 201L0 201Z" fill="#fa7268"></path><path d="M0 89L12.3 90C24.7 91 49.3 93 74 98.5C98.7 104 123.3 113 148 112.5C172.7 112 197.3 102 221.8 94.8C246.3 87.7 270.7 83.3 295.2 86C319.7 88.7 344.3 98.3 369 105.8C393.7 113.3 418.3 118.7 443 111C467.7 103.3 492.3 82.7 517 80.8C541.7 79 566.3 96 591 99.3C615.7 102.7 640.3 92.3 664.8 98.2C689.3 104 713.7 126 738.2 137.2C762.7 148.3 787.3 148.7 812 138.8C836.7 129 861.3 109 886 97.3C910.7 85.7 935.3 82.3 947.7 80.7L960 79L960 201L947.7 201C935.3 201 910.7 201 886 201C861.3 201 836.7 201 812 201C787.3 201 762.7 201 738.2 201C713.7 201 689.3 201 664.8 201C640.3 201 615.7 201 591 201C566.3 201 541.7 201 517 201C492.3 201 467.7 201 443 201C418.3 201 393.7 201 369 201C344.3 201 319.7 201 295.2 201C270.7 201 246.3 201 221.8 201C197.3 201 172.7 201 148 201C123.3 201 98.7 201 74 201C49.3 201 24.7 201 12.3 201L0 201Z" fill="#f86391"></path><path d="M0 143L12.3 140.5C24.7 138 49.3 133 74 134.3C98.7 135.7 123.3 143.3 148 146.8C172.7 150.3 197.3 149.7 221.8 152C246.3 154.3 270.7 159.7 295.2 150.2C319.7 140.7 344.3 116.3 369 112.2C393.7 108 418.3 124 443 127C467.7 130 492.3 120 517 123C541.7 126 566.3 142 591 148.2C615.7 154.3 640.3 150.7 664.8 141.3C689.3 132 713.7 117 738.2 112.5C762.7 108 787.3 114 812 116.5C836.7 119 861.3 118 886 120.2C910.7 122.3 935.3 127.7 947.7 130.3L960 133L960 201L947.7 201C935.3 201 910.7 201 886 201C861.3 201 836.7 201 812 201C787.3 201 762.7 201 738.2 201C713.7 201 689.3 201 664.8 201C640.3 201 615.7 201 591 201C566.3 201 541.7 201 517 201C492.3 201 467.7 201 443 201C418.3 201 393.7 201 369 201C344.3 201 319.7 201 295.2 201C270.7 201 246.3 201 221.8 201C197.3 201 172.7 201 148 201C123.3 201 98.7 201 74 201C49.3 201 24.7 201 12.3 201L0 201Z" fill="#de66bc"></path><path d="M0 171L12.3 166C24.7 161 49.3 151 74 148C98.7 145 123.3 149 148 153.3C172.7 157.7 197.3 162.3 221.8 164.3C246.3 166.3 270.7 165.7 295.2 162.7C319.7 159.7 344.3 154.3 369 147C393.7 139.7 418.3 130.3 443 127C467.7 123.7 492.3 126.3 517 126C541.7 125.7 566.3 122.3 591 122.2C615.7 122 640.3 125 664.8 125.3C689.3 125.7 713.7 123.3 738.2 128.5C762.7 133.7 787.3 146.3 812 146.5C836.7 146.7 861.3 134.3 886 132.3C910.7 130.3 935.3 138.7 947.7 142.8L960 147L960 201L947.7 201C935.3 201 910.7 201 886 201C861.3 201 836.7 201 812 201C787.3 201 762.7 201 738.2 201C713.7 201 689.3 201 664.8 201C640.3 201 615.7 201 591 201C566.3 201 541.7 201 517 201C492.3 201 467.7 201 443 201C418.3 201 393.7 201 369 201C344.3 201 319.7 201 295.2 201C270.7 201 246.3 201 221.8 201C197.3 201 172.7 201 148 201C123.3 201 98.7 201 74 201C49.3 201 24.7 201 12.3 201L0 201Z" fill="#a975e0"></path><path d="M0 157L12.3 157.3C24.7 157.7 49.3 158.3 74 156.3C98.7 154.3 123.3 149.7 148 152.8C172.7 156 197.3 167 221.8 167C246.3 167 270.7 156 295.2 151C319.7 146 344.3 147 369 150C393.7 153 418.3 158 443 161.8C467.7 165.7 492.3 168.3 517 173.2C541.7 178 566.3 185 591 181.8C615.7 178.7 640.3 165.3 664.8 160.3C689.3 155.3 713.7 158.7 738.2 158.2C762.7 157.7 787.3 153.3 812 157.7C836.7 162 861.3 175 886 176.5C910.7 178 935.3 168 947.7 163L960 158L960 201L947.7 201C935.3 201 910.7 201 886 201C861.3 201 836.7 201 812 201C787.3 201 762.7 201 738.2 201C713.7 201 689.3 201 664.8 201C640.3 201 615.7 201 591 201C566.3 201 541.7 201 517 201C492.3 201 467.7 201 443 201C418.3 201 393.7 201 369 201C344.3 201 319.7 201 295.2 201C270.7 201 246.3 201 221.8 201C197.3 201 172.7 201 148 201C123.3 201 98.7 201 74 201C49.3 201 24.7 201 12.3 201L0 201Z" fill="#4285f4"></path></svg>