<svg id="visual" viewBox="0 0 960 540" width="960" height="540" xmlns="http://www.w3.org/2000/svg" xmlns:xlink="http://www.w3.org/1999/xlink" version="1.1"><rect x="0" y="0" width="960" height="540" fill="#4285f4"></rect><path d="M0 156L46 156L46 142L91 142L91 155L137 155L137 118L183 118L183 97L229 97L229 156L274 156L274 123L320 123L320 166L366 166L366 171L411 171L411 101L457 101L457 158L503 158L503 96L549 96L549 143L594 143L594 115L640 115L640 122L686 122L686 146L731 146L731 148L777 148L777 180L823 180L823 186L869 186L869 98L914 98L914 141L960 141L960 113L960 0L960 0L914 0L914 0L869 0L869 0L823 0L823 0L777 0L777 0L731 0L731 0L686 0L686 0L640 0L640 0L594 0L594 0L549 0L549 0L503 0L503 0L457 0L457 0L411 0L411 0L366 0L366 0L320 0L320 0L274 0L274 0L229 0L229 0L183 0L183 0L137 0L137 0L91 0L91 0L46 0L46 0L0 0Z" fill="#4285f4"></path><path d="M0 159L46 159L46 129L91 129L91 134L137 134L137 174L183 174L183 160L229 160L229 161L274 161L274 135L320 135L320 148L366 148L366 149L411 149L411 149L457 149L457 130L503 130L503 100L549 100L549 116L594 116L594 168L640 168L640 92L686 92L686 146L731 146L731 162L777 162L777 144L823 144L823 114L869 114L869 145L914 145L914 153L960 153L960 160L960 0L960 0L914 0L914 0L869 0L869 0L823 0L823 0L777 0L777 0L731 0L731 0L686 0L686 0L640 0L640 0L594 0L594 0L549 0L549 0L503 0L503 0L457 0L457 0L411 0L411 0L366 0L366 0L320 0L320 0L274 0L274 0L229 0L229 0L183 0L183 0L137 0L137 0L91 0L91 0L46 0L46 0L0 0Z" fill="#8580ee"></path><path d="M0 155L46 155L46 108L91 108L91 139L137 139L137 82L183 82L183 121L229 121L229 106L274 106L274 88L320 88L320 98L366 98L366 118L411 118L411 97L457 97L457 135L503 135L503 164L549 164L549 131L594 131L594 164L640 164L640 111L686 111L686 163L731 163L731 105L777 105L777 132L823 132L823 107L869 107L869 84L914 84L914 110L960 110L960 90L960 0L960 0L914 0L914 0L869 0L869 0L823 0L823 0L777 0L777 0L731 0L731 0L686 0L686 0L640 0L640 0L594 0L594 0L549 0L549 0L503 0L503 0L457 0L457 0L411 0L411 0L366 0L366 0L320 0L320 0L274 0L274 0L229 0L229 0L183 0L183 0L137 0L137 0L91 0L91 0L46 0L46 0L0 0Z" fill="#b07ae3"></path><path d="M0 112L46 112L46 124L91 124L91 86L137 86L137 79L183 79L183 119L229 119L229 109L274 109L274 90L320 90L320 103L366 103L366 107L411 107L411 81L457 81L457 89L503 89L503 138L549 138L549 147L594 147L594 98L640 98L640 103L686 103L686 117L731 117L731 82L777 82L777 74L823 74L823 86L869 86L869 122L914 122L914 91L960 91L960 137L960 0L960 0L914 0L914 0L869 0L869 0L823 0L823 0L777 0L777 0L731 0L731 0L686 0L686 0L640 0L640 0L594 0L594 0L549 0L549 0L503 0L503 0L457 0L457 0L411 0L411 0L366 0L366 0L320 0L320 0L274 0L274 0L229 0L229 0L183 0L183 0L137 0L137 0L91 0L91 0L46 0L46 0L0 0Z" fill="#d075d4"></path><path d="M0 77L46 77L46 71L91 71L91 85L137 85L137 67L183 67L183 89L229 89L229 118L274 118L274 124L320 124L320 128L366 128L366 94L411 94L411 98L457 98L457 112L503 112L503 88L549 88L549 133L594 133L594 77L640 77L640 98L686 98L686 75L731 75L731 101L777 101L777 120L823 120L823 130L869 130L869 77L914 77L914 91L960 91L960 116L960 0L960 0L914 0L914 0L869 0L869 0L823 0L823 0L777 0L777 0L731 0L731 0L686 0L686 0L640 0L640 0L594 0L594 0L549 0L549 0L503 0L503 0L457 0L457 0L411 0L411 0L366 0L366 0L320 0L320 0L274 0L274 0L229 0L229 0L183 0L183 0L137 0L137 0L91 0L91 0L46 0L46 0L0 0Z" fill="#e873c2"></path><path d="M0 111L46 111L46 74L91 74L91 79L137 79L137 108L183 108L183 88L229 88L229 61L274 61L274 71L320 71L320 71L366 71L366 110L411 110L411 58L457 58L457 89L503 89L503 98L549 98L549 102L594 102L594 95L640 95L640 87L686 87L686 74L731 74L731 76L777 76L777 63L823 63L823 83L869 83L869 108L914 108L914 86L960 86L960 70L960 0L960 0L914 0L914 0L869 0L869 0L823 0L823 0L777 0L777 0L731 0L731 0L686 0L686 0L640 0L640 0L594 0L594 0L549 0L549 0L503 0L503 0L457 0L457 0L411 0L411 0L366 0L366 0L320 0L320 0L274 0L274 0L229 0L229 0L183 0L183 0L137 0L137 0L91 0L91 0L46 0L46 0L0 0Z" fill="#f974af"></path><path d="M0 86L46 86L46 87L91 87L91 77L137 77L137 63L183 63L183 74L229 74L229 56L274 56L274 80L320 80L320 98L366 98L366 102L411 102L411 64L457 64L457 60L503 60L503 78L549 78L549 63L594 63L594 88L640 88L640 97L686 97L686 65L731 65L731 67L777 67L777 90L823 90L823 89L869 89L869 91L914 91L914 78L960 78L960 91L960 0L960 0L914 0L914 0L869 0L869 0L823 0L823 0L777 0L777 0L731 0L731 0L686 0L686 0L640 0L640 0L594 0L594 0L549 0L549 0L503 0L503 0L457 0L457 0L411 0L411 0L366 0L366 0L320 0L320 0L274 0L274 0L229 0L229 0L183 0L183 0L137 0L137 0L91 0L91 0L46 0L46 0L0 0Z" fill="#ff799d"></path><path d="M0 74L46 74L46 57L91 57L91 81L137 81L137 86L183 86L183 51L229 51L229 88L274 88L274 53L320 53L320 77L366 77L366 73L411 73L411 69L457 69L457 43L503 43L503 46L549 46L549 66L594 66L594 64L640 64L640 48L686 48L686 49L731 49L731 74L777 74L777 86L823 86L823 59L869 59L869 49L914 49L914 69L960 69L960 66L960 0L960 0L914 0L914 0L869 0L869 0L823 0L823 0L777 0L777 0L731 0L731 0L686 0L686 0L640 0L640 0L594 0L594 0L549 0L549 0L503 0L503 0L457 0L457 0L411 0L411 0L366 0L366 0L320 0L320 0L274 0L274 0L229 0L229 0L183 0L183 0L137 0L137 0L91 0L91 0L46 0L46 0L0 0Z" fill="#ff848a"></path><path d="M0 40L46 40L46 65L91 65L91 56L137 56L137 62L183 62L183 73L229 73L229 42L274 42L274 73L320 73L320 50L366 50L366 73L411 73L411 56L457 56L457 46L503 46L503 45L549 45L549 57L594 57L594 37L640 37L640 66L686 66L686 60L731 60L731 67L777 67L777 49L823 49L823 46L869 46L869 61L914 61L914 65L960 65L960 50L960 0L960 0L914 0L914 0L869 0L869 0L823 0L823 0L777 0L777 0L731 0L731 0L686 0L686 0L640 0L640 0L594 0L594 0L549 0L549 0L503 0L503 0L457 0L457 0L411 0L411 0L366 0L366 0L320 0L320 0L274 0L274 0L229 0L229 0L183 0L183 0L137 0L137 0L91 0L91 0L46 0L46 0L0 0Z" fill="#ff9377"></path><path d="M0 32L46 32L46 29L91 29L91 44L137 44L137 32L183 32L183 41L229 41L229 39L274 39L274 56L320 56L320 49L366 49L366 51L411 51L411 47L457 47L457 39L503 39L503 33L549 33L549 57L594 57L594 34L640 34L640 52L686 52L686 48L731 48L731 52L777 52L777 36L823 36L823 29L869 29L869 53L914 53L914 35L960 35L960 53L960 0L960 0L914 0L914 0L869 0L869 0L823 0L823 0L777 0L777 0L731 0L731 0L686 0L686 0L640 0L640 0L594 0L594 0L549 0L549 0L503 0L503 0L457 0L457 0L411 0L411 0L366 0L366 0L320 0L320 0L274 0L274 0L229 0L229 0L183 0L183 0L137 0L137 0L91 0L91 0L46 0L46 0L0 0Z" fill="#ffa467"></path><path d="M0 43L46 43L46 35L91 35L91 40L137 40L137 20L183 20L183 43L229 43L229 26L274 26L274 37L320 37L320 20L366 20L366 24L411 24L411 23L457 23L457 20L503 20L503 28L549 28L549 39L594 39L594 26L640 26L640 33L686 33L686 36L731 36L731 38L777 38L777 33L823 33L823 25L869 25L869 21L914 21L914 20L960 20L960 27L960 0L960 0L914 0L914 0L869 0L869 0L823 0L823 0L777 0L777 0L731 0L731 0L686 0L686 0L640 0L640 0L594 0L594 0L549 0L549 0L503 0L503 0L457 0L457 0L411 0L411 0L366 0L366 0L320 0L320 0L274 0L274 0L229 0L229 0L183 0L183 0L137 0L137 0L91 0L91 0L46 0L46 0L0 0Z" fill="#ffb75c"></path><path d="M0 25L46 25L46 22L91 22L91 12L137 12L137 21L183 21L183 14L229 14L229 23L274 23L274 17L320 17L320 16L366 16L366 21L411 21L411 28L457 28L457 14L503 14L503 26L549 26L549 26L594 26L594 27L640 27L640 18L686 18L686 21L731 21L731 12L777 12L777 24L823 24L823 13L869 13L869 12L914 12L914 14L960 14L960 26L960 0L960 0L914 0L914 0L869 0L869 0L823 0L823 0L777 0L777 0L731 0L731 0L686 0L686 0L640 0L640 0L594 0L594 0L549 0L549 0L503 0L503 0L457 0L457 0L411 0L411 0L366 0L366 0L320 0L320 0L274 0L274 0L229 0L229 0L183 0L183 0L137 0L137 0L91 0L91 0L46 0L46 0L0 0Z" fill="#feca57"></path></svg>