<svg id="visual" viewBox="0 0 960 540" width="960" height="540" xmlns="http://www.w3.org/2000/svg" xmlns:xlink="http://www.w3.org/1999/xlink" version="1.1"><rect x="0" y="0" width="960" height="540" fill="#002233"></rect><path d="M0 59L6.2 59.3C12.3 59.7 24.7 60.3 37 55.8C49.3 51.3 61.7 41.7 74 43.7C86.3 45.7 98.7 59.3 111 74C123.3 88.7 135.7 104.3 148 103.2C160.3 102 172.7 84 185 68.2C197.3 52.3 209.7 38.7 221.8 43.2C234 47.7 246 70.3 258.2 80.7C270.3 91 282.7 89 295 88.7C307.3 88.3 319.7 89.7 332 88.7C344.3 87.7 356.7 84.3 369 87.5C381.3 90.7 393.7 100.3 406 99C418.3 97.7 430.7 85.3 443 71.8C455.3 58.3 467.7 43.7 480 52.3C492.3 61 504.7 93 517 98.3C529.3 103.7 541.7 82.3 554 82.8C566.3 83.3 578.7 105.7 591 99.8C603.3 94 615.7 60 628 49C640.3 38 652.7 50 665 54.5C677.3 59 689.7 56 701.8 57.7C714 59.3 726 65.7 738.2 74C750.3 82.3 762.7 92.7 775 93.5C787.3 94.3 799.7 85.7 812 84.2C824.3 82.7 836.7 88.3 849 80.2C861.3 72 873.7 50 886 43.2C898.3 36.3 910.7 44.7 923 49.2C935.3 53.7 947.7 54.3 953.8 54.7L960 55L960 0L953.8 0C947.7 0 935.3 0 923 0C910.7 0 898.3 0 886 0C873.7 0 861.3 0 849 0C836.7 0 824.3 0 812 0C799.7 0 787.3 0 775 0C762.7 0 750.3 0 738.2 0C726 0 714 0 701.8 0C689.7 0 677.3 0 665 0C652.7 0 640.3 0 628 0C615.7 0 603.3 0 591 0C578.7 0 566.3 0 554 0C541.7 0 529.3 0 517 0C504.7 0 492.3 0 480 0C467.7 0 455.3 0 443 0C430.7 0 418.3 0 406 0C393.7 0 381.3 0 369 0C356.7 0 344.3 0 332 0C319.7 0 307.3 0 295 0C282.7 0 270.3 0 258.2 0C246 0 234 0 221.8 0C209.7 0 197.3 0 185 0C172.7 0 160.3 0 148 0C135.7 0 123.3 0 111 0C98.7 0 86.3 0 74 0C61.7 0 49.3 0 37 0C24.7 0 12.3 0 6.2 0L0 0Z" fill="#4285f4" stroke-linecap="round" stroke-linejoin="miter"></path></svg>