<svg id="visual" viewBox="0 0 960 200" width="960" height="200" xmlns="http://www.w3.org/2000/svg" xmlns:xlink="http://www.w3.org/1999/xlink" version="1.1"><path d="M0 25L10 25C20 25 40 25 60 40.3C80 55.7 100 86.3 120 90.7C140 95 160 73 180 67.7C200 62.3 220 73.7 240 73.3C260 73 280 61 300 61.7C320 62.3 340 75.7 360 80C380 84.3 400 79.7 420 78C440 76.3 460 77.7 480 69.3C500 61 520 43 540 45.3C560 47.7 580 70.3 600 79C620 87.7 640 82.3 660 69.7C680 57 700 37 720 39C740 41 760 65 780 74.7C800 84.3 820 79.7 840 74.3C860 69 880 63 900 55C920 47 940 37 950 32L960 27L960 0L950 0C940 0 920 0 900 0C880 0 860 0 840 0C820 0 800 0 780 0C760 0 740 0 720 0C700 0 680 0 660 0C640 0 620 0 600 0C580 0 560 0 540 0C520 0 500 0 480 0C460 0 440 0 420 0C400 0 380 0 360 0C340 0 320 0 300 0C280 0 260 0 240 0C220 0 200 0 180 0C160 0 140 0 120 0C100 0 80 0 60 0C40 0 20 0 10 0L0 0Z" fill="#9c88ff"></path><path d="M0 51L10 50.3C20 49.7 40 48.3 60 62C80 75.7 100 104.3 120 110.7C140 117 160 101 180 97.3C200 93.7 220 102.3 240 102C260 101.7 280 92.3 300 97.3C320 102.3 340 121.7 360 128C380 134.3 400 127.7 420 126C440 124.3 460 127.7 480 117.3C500 107 520 83 540 77.3C560 71.7 580 84.3 600 95.3C620 106.3 640 115.7 660 113.3C680 111 700 97 720 96C740 95 760 107 780 116C800 125 820 131 840 123.3C860 115.7 880 94.3 900 80.3C920 66.3 940 59.7 950 56.3L960 53L960 25L950 30C940 35 920 45 900 53C880 61 860 67 840 72.3C820 77.7 800 82.3 780 72.7C760 63 740 39 720 37C700 35 680 55 660 67.7C640 80.3 620 85.7 600 77C580 68.3 560 45.7 540 43.3C520 41 500 59 480 67.3C460 75.7 440 74.3 420 76C400 77.7 380 82.3 360 78C340 73.7 320 60.3 300 59.7C280 59 260 71 240 71.3C220 71.7 200 60.3 180 65.7C160 71 140 93 120 88.7C100 84.3 80 53.7 60 38.3C40 23 20 23 10 23L0 23Z" fill="#6177d4"></path><path d="M0 83L10 79C20 75 40 67 60 77.7C80 88.3 100 117.7 120 127.7C140 137.7 160 128.3 180 127C200 125.7 220 132.3 240 127.3C260 122.3 280 105.7 300 107C320 108.3 340 127.7 360 136C380 144.3 400 141.7 420 146.7C440 151.7 460 164.3 480 156.3C500 148.3 520 119.7 540 112C560 104.3 580 117.7 600 130C620 142.3 640 153.7 660 147.3C680 141 700 117 720 111.3C740 105.7 760 118.3 780 126C800 133.7 820 136.3 840 130.3C860 124.3 880 109.7 900 97C920 84.3 940 73.7 950 68.3L960 63L960 51L950 54.3C940 57.7 920 64.3 900 78.3C880 92.3 860 113.7 840 121.3C820 129 800 123 780 114C760 105 740 93 720 94C700 95 680 109 660 111.3C640 113.7 620 104.3 600 93.3C580 82.3 560 69.7 540 75.3C520 81 500 105 480 115.3C460 125.7 440 122.3 420 124C400 125.7 380 132.3 360 126C340 119.7 320 100.3 300 95.3C280 90.3 260 99.7 240 100C220 100.3 200 91.7 180 95.3C160 99 140 115 120 108.7C100 102.3 80 73.7 60 60C40 46.3 20 47.7 10 48.3L0 49Z" fill="#3462a4"></path><path d="M0 145L10 144.7C20 144.3 40 143.7 60 144.7C80 145.7 100 148.3 120 150.3C140 152.3 160 153.7 180 156C200 158.3 220 161.7 240 164.7C260 167.7 280 170.3 300 169.7C320 169 340 165 360 166C380 167 400 173 420 179.3C440 185.7 460 192.3 480 192.7C500 193 520 187 540 184.7C560 182.3 580 183.7 600 183C620 182.3 640 179.7 660 175.7C680 171.7 700 166.3 720 164.3C740 162.3 760 163.7 780 165C800 166.3 820 167.7 840 164.3C860 161 880 153 900 150C920 147 940 149 950 150L960 151L960 61L950 66.3C940 71.7 920 82.3 900 95C880 107.7 860 122.3 840 128.3C820 134.3 800 131.7 780 124C760 116.3 740 103.7 720 109.3C700 115 680 139 660 145.3C640 151.7 620 140.3 600 128C580 115.7 560 102.3 540 110C520 117.7 500 146.3 480 154.3C460 162.3 440 149.7 420 144.7C400 139.7 380 142.3 360 134C340 125.7 320 106.3 300 105C280 103.7 260 120.3 240 125.3C220 130.3 200 123.7 180 125C160 126.3 140 135.7 120 125.7C100 115.7 80 86.3 60 75.7C40 65 20 73 10 77L0 81Z" fill="#1b4b74"></path><path d="M0 165L10 166C20 167 40 169 60 172.3C80 175.7 100 180.3 120 183.3C140 186.3 160 187.7 180 188C200 188.3 220 187.7 240 188.7C260 189.7 280 192.3 300 192.7C320 193 340 191 360 190.7C380 190.3 400 191.7 420 193.3C440 195 460 197 480 196.3C500 195.7 520 192.3 540 192.3C560 192.3 580 195.7 600 194.7C620 193.7 640 188.3 660 185.3C680 182.3 700 181.7 720 183.7C740 185.7 760 190.3 780 192.7C800 195 820 195 840 189C860 183 880 171 900 169.3C920 167.7 940 176.3 950 180.7L960 185L960 149L950 148C940 147 920 145 900 148C880 151 860 159 840 162.3C820 165.7 800 164.3 780 163C760 161.7 740 160.3 720 162.3C700 164.3 680 169.7 660 173.7C640 177.7 620 180.3 600 181C580 181.7 560 180.3 540 182.7C520 185 500 191 480 190.7C460 190.3 440 183.7 420 177.3C400 171 380 165 360 164C340 163 320 167 300 167.7C280 168.3 260 165.7 240 162.7C220 159.7 200 156.3 180 154C160 151.7 140 150.3 120 148.3C100 146.3 80 143.7 60 142.7C40 141.7 20 142.3 10 142.7L0 143Z" fill="#183345"></path><path d="M0 201L10 201C20 201 40 201 60 201C80 201 100 201 120 201C140 201 160 201 180 201C200 201 220 201 240 201C260 201 280 201 300 201C320 201 340 201 360 201C380 201 400 201 420 201C440 201 460 201 480 201C500 201 520 201 540 201C560 201 580 201 600 201C620 201 640 201 660 201C680 201 700 201 720 201C740 201 760 201 780 201C800 201 820 201 840 201C860 201 880 201 900 201C920 201 940 201 950 201L960 201L960 183L950 178.7C940 174.3 920 165.7 900 167.3C880 169 860 181 840 187C820 193 800 193 780 190.7C760 188.3 740 183.7 720 181.7C700 179.7 680 180.3 660 183.3C640 186.3 620 191.7 600 192.7C580 193.7 560 190.3 540 190.3C520 190.3 500 193.7 480 194.3C460 195 440 193 420 191.3C400 189.7 380 188.3 360 188.7C340 189 320 191 300 190.7C280 190.3 260 187.7 240 186.7C220 185.7 200 186.3 180 186C160 185.7 140 184.3 120 181.3C100 178.3 80 173.7 60 170.3C40 167 20 165 10 164L0 163Z" fill="#171a1c"></path></svg>